<svg xmlns="http://www.w3.org/2000/svg" viewBox="0 0 44 44">
  <defs>
    <linearGradient id="lgA" x1="0" y1="0" x2="1" y2="1">
      <stop offset="0%" stop-color="#6366f1" />
      <stop offset="100%" stop-color="#8b5cf6" />
    </linearGradient>
    <linearGradient id="lgB" x1="0" y1="0" x2="1" y2="1">
      <stop offset="0%" stop-color="#0ea5e9" />
      <stop offset="100%" stop-color="#06b6d4" />
    </linearGradient>
  </defs>
  <rect x="8" y="6" width="4" height="32" rx="2" fill="url(#lgA)" />
  <rect x="32" y="6" width="4" height="32" rx="2" fill="url(#lgB)" />
  <rect x="8" y="6" width="28" height="4" rx="2" fill="url(#lgA)" />
  <rect x="8" y="34" width="28" height="4" rx="2" fill="url(#lgB)" />
  <rect x="8" y="20" width="28" height="3" rx="1.5" fill="url(#lgA)" opacity="0.6" />
  <line x1="8" y1="6" x2="36" y2="20" stroke="url(#lgA)" stroke-width="2.5" stroke-linecap="round" />
  <line x1="8" y1="20" x2="36" y2="34" stroke="url(#lgB)" stroke-width="2.5" stroke-linecap="round" />
  <circle cx="8" cy="6" r="2.5" fill="#fff" />
  <circle cx="36" cy="6" r="2.5" fill="#fff" />
  <circle cx="8" cy="34" r="2.5" fill="#fff" />
  <circle cx="36" cy="34" r="2.5" fill="#fff" />
  <circle cx="8" cy="20" r="2" fill="#fff" />
  <circle cx="36" cy="20" r="2" fill="#fff" />
  <circle cx="22" cy="20" r="3" fill="url(#lgA)" />
  <circle cx="22" cy="20" r="1.5" fill="#fff" />
</svg>
